PathFileType	4	(X/Y/Z)	OpenSim_Sub06_EMGStiffKnee_Gyro.trc
DataRate	CameraRate	NumFrames	NumMarkers	Units	OrigDataRate	OrigDataStartFrame	OrigNumFrames
100	100	17	8	m	100	3396	5432
Frame#	Time	torso_imu_offset_imu	pelvis_imu_offset_imu	tibia_r_imu_offset_imu	femur_r_imu_offset_imu	tibia_l_imu_offset_imu	femur_l_imu_offset_imu	toes_r_imu_offset_imu	toes_l_imu_offset_imu
				X1	Y1	Z1	X2	Y2	Z2	X3	Y3	Z3	X4	Y4	Z4	X5	Y5	Z5	X6	Y6	Z6	X7	Y7	Z7	X8		Y8	Z8	

3396	33.95000000	-0.74849600	-0.32361300	-0.23188000	-0.31149800	0.27889000	0.01977600	0.73891200	0.80737400	4.15357900	-1.38935000	0.41172900	1.23420500	-0.05485100	-0.02010000	0.52442700	0.34863000	0.24087700	0.84501200	-1.16880700	4.84139100	2.27875500	0.14675100	-0.37608800	0.08388000
3397	33.96000000	-0.70119600	-0.33694400	-0.20636200	-0.30051000	0.24313900	-0.04344300	0.44594700	0.79369700	4.39732000	-1.24839300	0.17374100	1.20907200	0.02655300	-0.03205400	0.52422100	0.26379500	0.10737700	0.79653500	-1.35537400	4.92894900	2.29645600	0.00978300	-0.39572100	0.14196600
3398	33.97000000	-0.64639400	-0.35893300	-0.18597500	-0.28088300	0.19738200	-0.09572200	-0.00542500	0.64342800	4.58741800	-1.01184100	-0.09012200	1.09160300	0.07774500	-0.03696100	0.53833000	0.16791300	-0.01441600	0.75654700	-1.39908500	4.96337300	2.30991200	0.01594200	-0.33523800	0.17905900
3399	33.98000000	-0.57348600	-0.36166200	-0.16235500	-0.24136400	0.15004100	-0.10512500	-0.38861500	0.42583000	4.79588800	-0.72025200	-0.33701700	0.88894800	0.12287300	-0.02359400	0.56482400	0.06870200	-0.02281400	0.74654300	-1.31673700	4.97334300	2.37458000	0.02480800	-0.32778900	0.20112800
3400	33.99000000	-0.52602900	-0.35820400	-0.12957000	-0.20918600	0.11256900	-0.11634900	-0.56906200	0.33594800	5.10911600	-0.40782100	-0.52668900	0.62133300	0.15532100	-0.03421800	0.58827700	-0.02771000	0.05149400	0.76578100	-1.13539500	4.93760600	2.54565500	0.00487600	-0.25581500	0.20334500
3401	34	-0.49667900	-0.34917900	-0.09459600	-0.14405200	0.08873400	-0.08769500	-0.51142400	0.34065300	5.39348000	-0.04531800	-0.63166200	0.30819200	0.15212500	-0.04092200	0.58762100	-0.09326300	0.13574600	0.81054100	-0.86334500	4.73207500	2.78157800	0.00644400	-0.24534100	0.22474900
3402	34.01000000	-0.45146300	-0.31961000	-0.06198100	-0.09351400	0.07578000	-0.05408200	-0.20784400	0.27254800	5.52725700	0.39018100	-0.64413200	-0.05467400	0.08054800	-0.01531300	0.57324400	-0.15254300	0.18849400	0.83780600	-0.62043100	4.31029100	3.03636400	-0.03287000	-0.21463100	0.22606400
3403	34.02000000	-0.36631400	-0.27925700	-0.03007300	-0.04085500	0.06101700	-0.02751100	0.20099500	0.07649000	5.61086100	0.87276600	-0.60770400	-0.43788300	-0.02281500	-0.00630800	0.59024500	-0.25230100	0.20586500	0.82632100	-0.60565200	3.73250600	3.31892200	-0.00730300	-0.18625100	0.21455500
3404	34.03000000	-0.30589800	-0.20194400	-0.00493900	0.00382200	0.04160900	-0.01227900	0.76061700	-0.12922500	5.66213300	1.37203900	-0.46555300	-0.83108200	-0.09545400	0.00575600	0.61988400	-0.36731200	0.17785900	0.82244300	-0.66907200	3.00415000	3.58251900	-0.01267100	-0.14559000	0.19707300
3405	34.04000000	-0.22379100	-0.14301200	0.01249400	0.02846100	0.01994700	0.02481000	1.63480700	-0.19689100	5.48534000	1.84361400	-0.21196200	-1.14899600	-0.14053900	0.00233800	0.66161200	-0.44300500	0.11045500	0.79190100	-0.78056400	2.13557100	3.82359600	0.03605900	-0.11412700	0.19038300
3406	34.05000000	-0.12643300	-0.08101200	0.03722800	0.00017000	-0.01637500	0.05720300	3.03160400	0.08478000	4.92207100	2.18846800	0.13903100	-1.37468400	-0.14309100	0.02935500	0.67850600	-0.39925900	0.04369600	0.72739100	-0.78833900	1.10174000	4.05226000	-0.00927400	-0.12051100	0.18806500
3407	34.06000000	-0.05703700	-0.01747100	0.04901700	-0.02835700	-0.05872800	0.08843800	3.81454000	0.27774100	4.20590500	2.19179500	0.54906200	-1.42200300	-0.09094900	0.04166300	0.69524200	-0.25514700	0.02703600	0.65297400	-1.38027500	0.45521500	3.84952100	0.01651900	-0.11172200	0.18078100
3408	34.07000000	-0.01447000	0.07547500	0.06311900	0.01167000	-0.12316900	0.10773300	2.90205800	-0.12449300	3.60846000	1.85617000	0.95337700	-1.31069800	0.05309000	0.03926600	0.74562800	-0.11369200	0.06431000	0.62571800	-0.31362100	0.21610300	3.11814800	-0.00944500	-0.14858400	0.18350700
3409	34.08000000	0.05356200	0.14960000	0.07858200	0.15578300	-0.22512400	0.12805300	0.38535900	-0.18805000	3.31565500	1.20303800	1.04886200	-1.16929100	0.20264900	0.02522900	0.79694100	-0.07617300	0.12936800	0.67592300	1.18603100	0.16307200	2.33503300	-0.00005000	-0.12331800	0.20690700
3410	34.09000000	0.13668100	0.25556700	0.10262200	0.32184900	-0.31498100	0.13930100	-0.41491200	0.05842000	2.90362900	0.48203600	0.60631200	-0.96367100	0.41152800	0.03866800	0.84238800	-0.21051400	0.18973700	0.79385500	1.39398300	0.14366300	1.88832500	-0.03614300	-0.17053800	0.20565700
3411	34.10000000	0.23049100	0.36092200	0.11188600	0.46381300	-0.34232200	0.12828000	0.61162700	-0.07255400	2.06531400	0.27331900	-0.15051800	-0.53529400	0.69480700	0.13561100	0.86579100	-0.46086700	0.20741900	0.98036400	0.25906800	-0.16593500	1.39636400	-0.10211100	-0.16871500	0.17749400
3412	34.11000000	0.33831300	0.43865100	0.11193100	0.56094300	-0.33325700	0.07039800	0.55987000	-0.45873600	0.85032000	0.41958000	-0.67346600	0.15360100	0.90302700	0.17957400	0.91743900	-0.68460000	0.16342200	1.15629400	-0.85499200	-0.85050500	0.60074100	-0.05402500	-0.14528400	0.10538500
